<svg width="48" height="49" viewBox="0 0 48 49" fill="none" xmlns="http://www.w3.org/2000/svg">
<path d="M15 19.1694C15 18.7552 15.3358 18.4194 15.75 18.4194H32.25C32.6642 18.4194 33 18.7552 33 19.1694V19.1694C33 19.5836 32.6642 19.9194 32.25 19.9194H15.75C15.3358 19.9194 15 19.5836 15 19.1694V19.1694Z" fill="white"/>
<path d="M15 24.1694C15 23.7552 15.3358 23.4194 15.75 23.4194H32.25C32.6642 23.4194 33 23.7552 33 24.1694V24.1694C33 24.5836 32.6642 24.9194 32.25 24.9194H15.75C15.3358 24.9194 15 24.5836 15 24.1694V24.1694Z" fill="white"/>
<path d="M15 29.1694C15 28.7552 15.3358 28.4194 15.75 28.4194H32.25C32.6642 28.4194 33 28.7552 33 29.1694V29.1694C33 29.5836 32.6642 29.9194 32.25 29.9194H15.75C15.3358 29.9194 15 29.5836 15 29.1694V29.1694Z" fill="white"/>
</svg>
