<svg width="18" height="19" viewBox="0 0 18 19" fill="none" xmlns="http://www.w3.org/2000/svg">
<g clip-path="url(#clip0_1_55)">
<path d="M8.77 2.07999C11.11 2.07999 11.39 2.08999 12.31 2.12999C13.17 2.16999 13.63 2.30999 13.94 2.42999C14.35 2.59999 14.64 2.77999 14.95 3.08999C15.25 3.38999 15.45 3.68999 15.6 4.08999C15.72 4.40999 15.87 4.86999 15.9 5.72999C15.95 6.64999 15.96 6.92999 15.96 9.26999C15.96 11.61 15.95 11.89 15.91 12.81C15.9055 13.3666 15.804 13.9182 15.61 14.44C15.44 14.85 15.26 15.14 14.95 15.45C14.65 15.75 14.35 15.95 13.94 16.11C13.63 16.23 13.17 16.37 12.31 16.41C11.39 16.45 11.11 16.46 8.77 16.46C6.43 16.46 6.15 16.46 5.22 16.41C4.66673 16.4043 4.11862 16.3028 3.6 16.11C3.18 15.95 2.9 15.76 2.59 15.45C2.28 15.15 2.09 14.85 1.93 14.45C1.73647 13.9246 1.63499 13.3698 1.63 12.81C1.59 11.89 1.58 11.61 1.58 9.26999C1.58 6.92999 1.58 6.64999 1.63 5.72999C1.67 4.86999 1.81 4.40999 1.93 4.09999C2.09 3.68999 2.28 3.39999 2.59 3.08999C2.89 2.78999 3.19 2.58999 3.59 2.43999C3.91 2.31999 4.37 2.16999 5.22 2.13999C6.15 2.08999 6.42 2.07999 8.77 2.07999ZM8.77 0.499986C6.39 0.499986 6.09 0.509986 5.15 0.549986C4.22 0.589986 3.58 0.749986 3.02 0.949986C2.45 1.17999 1.96 1.48999 1.47 1.96999C1 2.45999 0.7 2.94999 0.46 3.51999C0.24 4.07999 0.09 4.71999 0.06 5.64999C0 6.59999 0 6.89999 0 9.26999C0 11.64 0.01 11.95 0.05 12.88C0.09 13.82 0.25 14.45 0.45 15.01C0.68 15.59 0.99 16.08 1.47 16.57C1.96 17.05 2.45 17.35 3.02 17.58C3.58 17.8 4.22 17.95 5.15 17.98C6.09 18.03 6.39 18.04 8.77 18.04C11.16 18.04 11.45 18.03 12.39 17.99C13.32 17.95 13.96 17.79 14.52 17.58C15.1043 17.3606 15.6333 17.0159 16.07 16.57C16.56 16.08 16.86 15.59 17.08 15.01C17.3 14.46 17.45 13.82 17.49 12.88C17.53 11.95 17.54 11.65 17.54 9.26999C17.54 6.87999 17.54 6.58999 17.49 5.64999C17.4774 4.92255 17.3421 4.20245 17.09 3.51999C16.8677 2.9348 16.5195 2.40564 16.07 1.96999C15.6317 1.52608 15.1031 1.18162 14.52 0.959986C13.8383 0.703686 13.1181 0.565047 12.39 0.549986C11.184 0.501661 9.9769 0.484989 8.77 0.499986Z" fill="white"/>
<path d="M8.80005 4.49999C7.60657 4.49999 6.46198 4.9741 5.61807 5.81801C4.77415 6.66193 4.30005 7.80652 4.30005 8.99999C4.30005 10.1935 4.77415 11.3381 5.61807 12.182C6.46198 13.0259 7.60657 13.5 8.80005 13.5C9.99352 13.5 11.1381 13.0259 11.982 12.182C12.8259 11.3381 13.3 10.1935 13.3 8.99999C13.3 7.80652 12.8259 6.66193 11.982 5.81801C11.1381 4.9741 9.99352 4.49999 8.80005 4.49999ZM8.80005 11.93C8.41593 11.93 8.03558 11.8543 7.6807 11.7073C7.32582 11.5603 7.00337 11.3449 6.73176 11.0733C6.46015 10.8017 6.2447 10.4792 6.0977 10.1243C5.95071 9.76947 5.87505 9.38911 5.87505 9.00499C5.87505 8.62088 5.95071 8.24052 6.0977 7.88564C6.2447 7.53077 6.46015 7.20832 6.73176 6.93671C7.00337 6.6651 7.32582 6.44964 7.6807 6.30265C8.03558 6.15565 8.41593 6.07999 8.80005 6.07999C9.57581 6.07999 10.3198 6.38816 10.8683 6.93671C11.4169 7.48525 11.725 8.22924 11.725 9.00499C11.725 9.78075 11.4169 10.5247 10.8683 11.0733C10.3198 11.6218 9.57581 11.93 8.80005 11.93ZM13.43 5.49999C13.7085 5.49999 13.9756 5.38937 14.1725 5.19246C14.3694 4.99554 14.48 4.72847 14.48 4.44999C14.48 4.17152 14.3694 3.90444 14.1725 3.70753C13.9756 3.51062 13.7085 3.39999 13.43 3.39999C13.1516 3.39999 12.8845 3.51062 12.6876 3.70753C12.4907 3.90444 12.38 4.17152 12.38 4.44999C12.38 4.72847 12.4907 4.99554 12.6876 5.19246C12.8845 5.38937 13.1516 5.49999 13.43 5.49999Z" fill="white"/>
</g>
<defs>
<clipPath id="clip0_1_55">
<rect width="18" height="18" fill="white" transform="translate(0 0.5)"/>
</clipPath>
</defs>
</svg>
