<svg width="18" height="21" viewBox="0 0 18 21" fill="none" xmlns="http://www.w3.org/2000/svg">
<g clip-path="url(#clip0_1_58)">
<path d="M8.01999 0.5H11C11 0.5 10.83 4.32 15.13 4.6V7.55C15.13 7.55 12.83 7.69 11 6.29L11.03 12.39C11.03 13.4822 10.706 14.5498 10.099 15.4578C9.49202 16.3658 8.62932 17.0733 7.62009 17.4908C6.61086 17.9083 5.50046 18.017 4.42941 17.8032C3.35836 17.5894 2.37481 17.0627 1.60323 16.2897C0.83164 15.5167 0.306701 14.5322 0.0948415 13.4608C-0.117018 12.3893 -0.0062761 11.2791 0.413053 10.2706C0.832383 9.26218 1.54145 8.40076 2.45053 7.79542C3.3596 7.19008 4.42782 6.86802 5.51999 6.87H6.28999V9.9C5.78759 9.74432 5.24887 9.75106 4.75052 9.91927C4.25217 10.0875 3.81956 10.4086 3.51426 10.8369C3.20897 11.2652 3.04653 11.7789 3.05008 12.3048C3.05362 12.8308 3.22297 13.3422 3.53401 13.7664C3.84505 14.1905 4.28195 14.5058 4.78252 14.6673C5.2831 14.8287 5.82185 14.8282 6.32211 14.6658C6.82238 14.5033 7.25866 14.1872 7.56889 13.7625C7.87911 13.3377 8.04746 12.826 8.04999 12.3L8.01999 0.5Z" fill="white"/>
</g>
<defs>
<clipPath id="clip0_1_58">
<rect width="18" height="20" fill="white" transform="translate(0 0.5)"/>
</clipPath>
</defs>
</svg>
