<svg width="18" height="15" viewBox="0 0 18 15" fill="none" xmlns="http://www.w3.org/2000/svg">
<g clip-path="url(#clip0_1_60)">
<path d="M17.64 2.60001C17.1663 3.30333 16.5742 3.91913 15.89 4.42001C15.89 4.47001 15.89 4.55001 15.91 4.65001L15.93 4.88001C15.9273 6.85322 15.3391 8.78127 14.24 10.42C13.67 11.27 13 12.04 12.22 12.7C11.3835 13.398 10.4283 13.94 9.4 14.3C7.93929 14.8221 6.37898 15.0052 4.83709 14.8354C3.2952 14.6656 1.8121 14.1474 0.5 13.32C0.84 13.34 1.11 13.36 1.33 13.36C2.97 13.36 4.43 12.86 5.71 11.86C4.97566 11.8372 4.2659 11.5902 3.676 11.1522C3.08611 10.7143 2.64434 10.1063 2.41 9.41C2.93528 9.5381 3.48587 9.51733 4 9.35001C3.20622 9.19444 2.49172 8.76645 1.98 8.14001C1.4545 7.5206 1.1704 6.73224 1.18 5.92001V5.89001C1.64 6.13001 2.16 6.26001 2.76 6.29001C2.28257 5.97263 1.89175 5.54129 1.62287 5.03496C1.354 4.52863 1.21553 3.96328 1.22 3.39001C1.22 2.78001 1.36 2.19001 1.67 1.60001C2.53757 2.68642 3.62899 3.5732 4.87 4.2C6.13846 4.8427 7.52939 5.20748 8.95 5.27001C8.87068 5.01045 8.82695 4.74132 8.82 4.47C8.82 3.5 9.16 2.67001 9.85 1.99001C10.1817 1.65265 10.5793 1.38712 11.0179 1.20993C11.4566 1.03274 11.927 0.947668 12.4 0.960005C12.876 0.960445 13.3469 1.05826 13.7837 1.24743C14.2205 1.4366 14.614 1.71313 14.94 2.06001C15.74 1.91001 16.48 1.62001 17.17 1.21001C16.9189 2.0273 16.369 2.71998 15.63 3.15001C16.37 3.05001 17.03 2.87001 17.64 2.61001V2.60001Z" fill="white"/>
</g>
<defs>
<clipPath id="clip0_1_60">
<rect width="18" height="15" fill="white"/>
</clipPath>
</defs>
</svg>
